<svg width="17" height="19" viewBox="0 0 17 19" fill="none" xmlns="http://www.w3.org/2000/svg">
<path fill-rule="evenodd" clip-rule="evenodd" d="M10.0578 2.53423C9.1873 1.69887 7.8127 1.69887 6.9422 2.53423L2.31574 6.97357C2.20239 7.0823 2.12614 7.224 2.0978 7.3785C1.54367 10.4004 1.50277 13.494 1.97681 16.5295L2.08933 17.25H5.06579V11.0387C5.06579 10.6244 5.40158 10.2887 5.81579 10.2887H11.1842C11.5984 10.2887 11.9342 10.6244 11.9342 11.0387V17.25H14.9107L15.0232 16.5295C15.4972 13.494 15.4563 10.4004 14.9022 7.3785C14.8739 7.224 14.7976 7.0823 14.6843 6.97357L10.0578 2.53423ZM5.90363 1.45191C7.3546 0.0596498 9.6454 0.0596498 11.0964 1.45191L15.7228 5.89125C16.0634 6.21804 16.2925 6.64373 16.3776 7.108C16.9621 10.2956 17.0053 13.559 16.5052 16.7609L16.3245 17.9184C16.2497 18.3971 15.8374 18.75 15.3529 18.75H11.1842C10.77 18.75 10.4342 18.4142 10.4342 18V11.7887H6.5658V18C6.5658 18.4142 6.23 18.75 5.81579 18.75H1.64706C1.16258 18.75 0.750287 18.3971 0.675537 17.9184L0.494777 16.7609C-0.00527343 13.559 0.0378763 10.2956 0.622406 7.108C0.707536 6.64373 0.936617 6.21804 1.27719 5.89125L5.90363 1.45191Z" fill="#FE5353"/>
</svg>
