<svg width="16" height="20" viewBox="0 0 16 20" fill="none" xmlns="http://www.w3.org/2000/svg">
<path fill-rule="evenodd" clip-rule="evenodd" d="M3.30602 5.75804L3.64908 8.84558L2.95486 8.90098C1.98676 8.97828 1.19626 9.70608 1.03933 10.6645C0.677644 12.8734 0.677644 15.1264 1.03933 17.3353C1.19626 18.2937 1.98676 19.0214 2.95486 19.0987L4.45099 19.2182C6.81311 19.4067 9.18651 19.4067 11.5487 19.2182L13.0448 19.0987C14.0129 19.0214 14.8034 18.2937 14.9603 17.3353C15.322 15.1264 15.322 12.8734 14.9603 10.6645C14.8034 9.70608 14.0129 8.97828 13.0448 8.90098L12.3505 8.84558L12.6935 5.75803C12.734 5.39406 12.734 5.02672 12.6935 4.66274L12.6708 4.45785C12.4293 2.28446 10.7207 0.5648 8.54891 0.30929C8.18411 0.26637 7.81551 0.26637 7.45071 0.30929C5.27888 0.5648 3.57027 2.28445 3.32879 4.45784L3.30602 4.66274C3.26558 5.02672 3.26558 5.39406 3.30602 5.75804ZM8.37361 1.79902C8.12531 1.7698 7.87431 1.7698 7.62591 1.79902C6.14731 1.97297 4.98403 3.14378 4.81961 4.62349L4.79685 4.82839C4.76864 5.08227 4.76864 5.3385 4.79685 5.59239L5.14564 8.73158C7.04641 8.60968 8.95311 8.60968 10.8539 8.73158L11.2027 5.59239C11.2309 5.3385 11.2309 5.08227 11.2027 4.82839L11.18 4.62349C11.0155 3.14378 9.85231 1.97297 8.37361 1.79902ZM7.99981 12.4999C7.17141 12.4999 6.49981 13.1715 6.49981 13.9999C6.49981 14.8283 7.17141 15.4999 7.99981 15.4999C8.82821 15.4999 9.49981 14.8283 9.49981 13.9999C9.49981 13.1715 8.82821 12.4999 7.99981 12.4999Z" fill="white"/>
</svg>
