<svg width="14" height="14" viewBox="0 0 14 14" fill="none" xmlns="http://www.w3.org/2000/svg">
<path fill-rule="evenodd" clip-rule="evenodd" d="M3.25047 0.9375C3.56113 0.9375 3.81297 1.18934 3.81297 1.5V2.75072C5.93375 2.56185 8.0672 2.56185 10.188 2.75072V1.5C10.188 1.18934 10.4398 0.9375 10.7505 0.9375C11.0611 0.9375 11.313 1.18934 11.313 1.5V2.86233C12.4327 3.02066 13.3174 3.90635 13.4671 5.03613L13.5321 5.52584C13.8051 7.58558 13.7815 9.6738 13.462 11.7269C13.3038 12.7439 12.4776 13.5251 11.4532 13.6261L10.5585 13.7144C8.19222 13.9477 5.80872 13.9477 3.44242 13.7144L2.54766 13.6261C1.52336 13.5251 0.697115 12.7439 0.538857 11.7269C0.219387 9.6738 0.195807 7.58558 0.468837 5.52584L0.53375 5.03613C0.68351 3.90634 1.56817 3.02063 2.68797 2.86232V1.5C2.68797 1.18934 2.93982 0.9375 3.25047 0.9375ZM3.58434 3.9021C5.85627 3.67806 8.14467 3.67806 10.4166 3.9021L11.0956 3.96907C11.7457 4.03318 12.2661 4.5364 12.3519 5.18395L12.4168 5.67367C12.4395 5.84475 12.46 6.01605 12.4784 6.1875H1.52252C1.54089 6.01605 1.5614 5.84476 1.58408 5.67368L1.64899 5.18395C1.73483 4.5364 2.25519 4.03318 2.90526 3.96907L3.58434 3.9021ZM1.4331 7.3125C1.35946 8.72858 1.43201 10.1499 1.65048 11.5539C1.72986 12.064 2.14429 12.4558 2.65807 12.5065L3.55283 12.5947C5.8457 12.8209 8.15525 12.8209 10.4481 12.5947L11.3428 12.5065C11.8566 12.4558 12.271 12.064 12.3505 11.5539C12.5689 10.1499 12.6414 8.72858 12.5678 7.3125H1.4331Z" fill="#9E9DA3"/>
</svg>
