<svg width="18" height="18" viewBox="0 0 18 18" fill="none" xmlns="http://www.w3.org/2000/svg">
<path d="M7.5 1.6875C7.18934 1.6875 6.9375 1.93934 6.9375 2.25V2.8125H3.75C3.43934 2.8125 3.1875 3.06434 3.1875 3.375C3.1875 3.68566 3.43934 3.9375 3.75 3.9375H14.25C14.5606 3.9375 14.8125 3.68566 14.8125 3.375C14.8125 3.06434 14.5606 2.8125 14.25 2.8125H11.0625V2.25C11.0625 1.93934 10.8106 1.6875 10.5 1.6875H7.5Z" fill="#444152"/>
<path d="M7.5 7.9875C7.81065 7.9875 8.0625 8.23935 8.0625 8.55V13.8C8.0625 14.1107 7.81065 14.3625 7.5 14.3625C7.18934 14.3625 6.9375 14.1107 6.9375 13.8V8.55C6.9375 8.23935 7.18934 7.9875 7.5 7.9875Z" fill="#444152"/>
<path d="M11.0625 8.55C11.0625 8.23935 10.8106 7.9875 10.5 7.9875C10.1894 7.9875 9.9375 8.23935 9.9375 8.55V13.8C9.9375 14.1107 10.1894 14.3625 10.5 14.3625C10.8106 14.3625 11.0625 14.1107 11.0625 13.8V8.55Z" fill="#444152"/>
<path fill-rule="evenodd" clip-rule="evenodd" d="M4.49286 5.93788C4.52452 5.65301 4.76531 5.4375 5.05193 5.4375H12.9467C13.2333 5.4375 13.4741 5.65301 13.5057 5.93788L13.6558 7.28889C13.9279 9.73785 13.9279 12.2095 13.6558 14.6584L13.641 14.7915C13.533 15.7636 12.7796 16.5388 11.811 16.6744C9.94565 16.9355 8.05295 16.9355 6.18761 16.6744C5.21895 16.5388 4.46555 15.7636 4.35753 14.7915L4.34276 14.6584C4.07064 12.2095 4.07064 9.73785 4.34276 7.28889L4.49286 5.93788ZM5.55539 6.5625L5.46087 7.41313C5.19794 9.77955 5.19794 12.1678 5.46087 14.5342L5.47565 14.6672C5.52688 15.1282 5.88419 15.4959 6.34359 15.5602C8.10545 15.8068 9.89315 15.8068 11.655 15.5602C12.1144 15.4959 12.4717 15.1282 12.5229 14.6672L12.5377 14.5342C12.8007 12.1678 12.8007 9.77955 12.5377 7.41313L12.4432 6.5625H5.55539Z" fill="#444152"/>
</svg>
