<svg width="15" height="18" viewBox="0 0 15 18" fill="none" xmlns="http://www.w3.org/2000/svg">
<path d="M7.663 17.25C8.121 17.25 8.5501 17.0259 8.8118 16.6501L13.0437 10.573C13.8384 9.4318 14.1925 8.0413 14.0406 6.65904L13.7152 3.69763C13.5762 2.43213 12.5827 1.42973 11.3185 1.27934L9.2014 1.0275C7.5848 0.835193 5.9456 1.00189 4.40075 1.51572C3.31942 1.87538 2.45331 2.69612 2.03603 3.75655L0.327424 8.0986C0.244774 8.3086 0.187654 8.5278 0.157294 8.7515C-0.107016 10.6987 1.65242 12.3118 3.56938 11.8798L7.3399 11.0302C7.3595 11.0258 7.3717 11.0278 7.3804 11.0306C7.3911 11.0339 7.4035 11.041 7.4147 11.0525C7.4259 11.0641 7.4326 11.0767 7.4356 11.0874C7.4381 11.0963 7.4397 11.1085 7.4347 11.128L6.3074 15.5007C6.079 16.3867 6.7481 17.25 7.663 17.25Z" fill="#9E9DA3"/>
</svg>
