<svg width="24" height="24" viewBox="0 0 24 24" fill="none" xmlns="http://www.w3.org/2000/svg">
<path fill-rule="evenodd" clip-rule="evenodd" d="M10.7377 3.25C9.96406 3.25 9.31874 3.84123 9.25118 4.61189C9.10994 6.22317 9.0742 7.84164 9.14406 9.45693C9.05973 9.46258 8.97541 9.46847 8.8911 9.47462L7.4016 9.5832C6.44955 9.6526 5.91734 10.7142 6.43133 11.5185C7.5275 13.2341 8.93996 14.7254 10.5934 15.9132L11.1901 16.3418C11.674 16.6894 12.3256 16.6894 12.8094 16.3418L13.4062 15.9132C15.0596 14.7254 16.4721 13.2341 17.5682 11.5185C18.0822 10.7142 17.55 9.6526 16.598 9.5832L15.1085 9.47462C15.0242 9.46847 14.9398 9.46258 14.8555 9.45693C14.9254 7.84164 14.8896 6.22317 14.7484 4.61188C14.6808 3.84123 14.0355 3.25 13.2619 3.25H10.7377ZM10.6813 10.1147C10.5676 8.3275 10.5888 6.53417 10.7448 4.75H13.2547C13.4108 6.53417 13.432 8.3275 13.3183 10.1147C13.3055 10.3151 13.3737 10.5122 13.5074 10.662C13.6411 10.8117 13.8293 10.9016 14.0299 10.9114C14.3532 10.9274 14.6764 10.9471 14.9994 10.9707L16.0812 11.0495C15.1216 12.4628 13.9201 13.6971 12.531 14.6949L11.9998 15.0765L11.4685 14.6949C10.0794 13.6971 8.87794 12.4628 7.9184 11.0495L9.00016 10.9707C9.32315 10.9471 9.64634 10.9274 9.96969 10.9114C10.1702 10.9016 10.3584 10.8117 10.4922 10.662C10.6259 10.5122 10.694 10.3151 10.6813 10.1147Z" fill="#444152"/>
<path d="M5.75 17C5.75 16.5858 5.41421 16.25 5 16.25C4.58579 16.25 4.25 16.5858 4.25 17V19C4.25 19.9665 5.0335 20.75 6 20.75H18C18.9665 20.75 19.75 19.9665 19.75 19V17C19.75 16.5858 19.4142 16.25 19 16.25C18.5858 16.25 18.25 16.5858 18.25 17V19C18.25 19.1381 18.1381 19.25 18 19.25H6C5.86193 19.25 5.75 19.1381 5.75 19V17Z" fill="#444152"/>
</svg>
