<svg width="16" height="20" viewBox="0 0 16 20" fill="none" xmlns="http://www.w3.org/2000/svg">
<path fill-rule="evenodd" clip-rule="evenodd" d="M13.9858 2.42367C10.0077 1.97906 5.99236 1.97906 2.0142 2.42367C1.74503 2.45376 1.6154 2.76941 1.78575 2.97998L5.30277 7.3275C6.56262 8.8849 7.25002 10.8275 7.25002 12.8307V15.7199L8.75002 16.8199V12.8307C8.75002 10.8275 9.43742 8.8849 10.6973 7.3275L14.2143 2.97998C14.3846 2.76941 14.255 2.45376 13.9858 2.42367ZM1.84759 0.93296C5.93648 0.47596 10.0635 0.47596 14.1524 0.93296C15.5994 1.09467 16.2962 2.79146 15.3805 3.92339L11.8634 8.2709C10.8195 9.5614 10.25 11.1709 10.25 12.8307V18.3C10.25 18.5826 10.0911 18.8413 9.83902 18.969C9.58692 19.0968 9.28442 19.0719 9.05652 18.9048L6.05652 16.7048C5.86384 16.5635 5.75002 16.3389 5.75002 16.1V12.8307C5.75002 11.1709 5.1805 9.5614 4.13658 8.2709L0.619558 3.92339C-0.296132 2.79146 0.400658 1.09467 1.84759 0.93296Z" fill="white"/>
</svg>
