<svg width="21" height="12" viewBox="0 0 21 12" fill="none" xmlns="http://www.w3.org/2000/svg">
<path d="M0.545826 7.0547C-0.144181 6.5208 -0.144182 5.4791 0.545826 4.9452C2.68395 3.29083 5.07146 1.98683 7.61899 1.08204L8.08504 0.916519C8.95468 0.607649 9.87396 1.19604 9.99176 2.09448C10.1296 3.14469 10.211 4.2125 10.2361 5.2836C10.3162 5.1579 10.4194 5.043 10.5459 4.9452C12.684 3.29083 15.0715 1.98683 17.619 1.08204L18.0851 0.916519C18.9547 0.607649 19.874 1.19604 19.9918 2.09448C20.3287 4.663 20.3287 7.337 19.9918 9.9055C19.874 10.8039 18.9547 11.3923 18.0851 11.0835L17.619 10.9179C15.0715 10.0131 12.684 8.7091 10.5459 7.0547C10.4194 6.9569 10.3162 6.8421 10.2361 6.7164C10.211 7.7874 10.1296 8.8553 9.99176 9.9055C9.87396 10.8039 8.95468 11.3923 8.08504 11.0835L7.61899 10.9179C5.07146 10.0131 2.68395 8.7091 0.545826 7.0547Z" fill="white"/>
</svg>
