<svg width="24" height="24" viewBox="0 0 24 24" fill="none" xmlns="http://www.w3.org/2000/svg">
<path fill-rule="evenodd" clip-rule="evenodd" d="M13.6641 6.34302C13.6641 6.75724 13.9999 7.09302 14.4141 7.09302H16.9068V9.58567C16.9068 9.99988 17.2425 10.3357 17.6568 10.3357C18.071 10.3357 18.4068 9.99988 18.4068 9.58567V6.34303C18.4068 5.92881 18.071 5.59303 17.6568 5.59303L14.4141 5.59302C13.9999 5.59302 13.6641 5.92881 13.6641 6.34302Z" fill="white"/>
<path fill-rule="evenodd" clip-rule="evenodd" d="M17.6567 13.6643C17.2425 13.6643 16.9067 14.0001 16.9067 14.4143V16.9069H14.4141C13.9999 16.9069 13.6641 17.2427 13.6641 17.6569C13.6641 18.0712 13.9999 18.4069 14.4141 18.4069H17.6567C18.0709 18.4069 18.4067 18.0712 18.4067 17.6569V14.4143C18.4067 14.0001 18.0709 13.6643 17.6567 13.6643Z" fill="white"/>
<path fill-rule="evenodd" clip-rule="evenodd" d="M6.34326 13.6643C6.75747 13.6643 7.09326 14.0001 7.09326 14.4143V16.9069H9.5859C10.0001 16.9069 10.3359 17.2427 10.3359 17.6569C10.3359 18.0712 10.0001 18.4069 9.5859 18.4069H6.34326C5.92904 18.4069 5.59326 18.0712 5.59326 17.6569V14.4143C5.59326 14.0001 5.92904 13.6643 6.34326 13.6643Z" fill="white"/>
<path fill-rule="evenodd" clip-rule="evenodd" d="M10.336 6.34302C10.336 6.75724 10.0001 7.09302 9.5859 7.09302H7.09326V9.58567C7.09326 9.99988 6.75747 10.3357 6.34326 10.3357C5.92905 10.3357 5.59326 9.99988 5.59326 9.58567V6.34302C5.59326 5.92881 5.92905 5.59302 6.34326 5.59302H9.5859C10.0001 5.59302 10.336 5.92881 10.336 6.34302Z" fill="white"/>
</svg>
