<svg width="15" height="18" viewBox="0 0 15 18" fill="none" xmlns="http://www.w3.org/2000/svg">
<path d="M6.83688 0.75C6.37888 0.75001 5.94978 0.97406 5.68808 1.34991L1.45619 7.427C0.66152 8.5682 0.30733 9.9587 0.45922 11.341L0.78465 14.3024C0.92371 15.5679 1.91718 16.5703 3.18139 16.7207L5.29843 16.9725C6.91508 17.1648 8.55428 16.9981 10.0991 16.4843C11.1805 16.1246 12.0466 15.3039 12.4639 14.2435L14.1725 9.9014C14.2551 9.6914 14.3122 9.4722 14.3426 9.2485C14.6069 7.3014 12.8475 5.68822 10.9305 6.12017L7.03258 6.99848L8.19248 2.49935C8.42088 1.61335 7.75178 0.74998 6.83688 0.75Z" fill="#9E9DA3"/>
</svg>
