<svg width="21" height="12" viewBox="0 0 21 12" fill="none" xmlns="http://www.w3.org/2000/svg">
<path d="M10.7637 5.2836C10.6836 5.1579 10.5804 5.043 10.454 4.9452C8.31582 3.29083 5.92835 1.98683 3.38082 1.08204L2.91477 0.916519C2.04513 0.607649 1.12584 1.19604 1.00801 2.09448C0.671159 4.663 0.671159 7.337 1.00801 9.9055C1.12584 10.8039 2.04513 11.3923 2.91477 11.0835L3.38082 10.9179C5.92835 10.0131 8.31582 8.7091 10.454 7.0547C10.5804 6.9569 10.6836 6.8421 10.7637 6.7164C10.7888 7.7874 10.8703 8.8553 11.008 9.9055C11.1258 10.8039 12.0451 11.3923 12.9147 11.0835L13.3808 10.9179C15.9283 10.0131 18.3158 8.7091 20.454 7.0547C21.144 6.5208 21.144 5.4791 20.454 4.9452C18.3158 3.29083 15.9283 1.98683 13.3808 1.08204L12.9147 0.916519C12.0451 0.607649 11.1258 1.19604 11.008 2.09448C10.8703 3.14469 10.7888 4.2125 10.7637 5.2836Z" fill="white"/>
</svg>
