<svg width="12" height="14" viewBox="0 0 12 14" fill="none" xmlns="http://www.w3.org/2000/svg">
<path d="M11.2757 0.469952C11.7109 0.630292 12 1.04492 12 1.50872V12.4912C12 12.955 11.7109 13.3697 11.2757 13.53C10.4523 13.8334 9.5477 13.8334 8.7243 13.53C8.2891 13.3697 8 12.955 8 12.4912V1.50872C8 1.04492 8.2891 0.630292 8.7243 0.469952C9.5477 0.166592 10.4523 0.166592 11.2757 0.469952Z" fill="white"/>
<path d="M3.27568 0.469952C3.71088 0.630292 4 1.04492 4 1.50872V12.4912C4 12.955 3.71088 13.3697 3.27568 13.53C2.45228 13.8334 1.54772 13.8334 0.72432 13.53C0.28912 13.3697 0 12.955 0 12.4912V1.50872C0 1.04492 0.28912 0.630292 0.72432 0.469952C1.54772 0.166592 2.45228 0.166592 3.27568 0.469952Z" fill="white"/>
</svg>
