<svg width="18" height="18" viewBox="0 0 18 18" fill="none" xmlns="http://www.w3.org/2000/svg">
<path fill-rule="evenodd" clip-rule="evenodd" d="M13.9012 3.57467C14.4488 3.7764 14.8125 4.29805 14.8125 4.88157V13.1184C14.8125 13.702 14.4488 14.2236 13.9012 14.4254C13.1581 14.6991 12.3419 14.6991 11.5988 14.4254C11.0513 14.2236 10.6875 13.702 10.6875 13.1184V4.88157C10.6875 4.29805 11.0513 3.7764 11.5988 3.57467C12.3419 3.30091 13.1581 3.30091 13.9012 3.57467ZM13.6875 4.88157C13.6875 4.76938 13.6176 4.66909 13.5123 4.63031C13.0203 4.44904 12.4797 4.44904 11.9877 4.63031C11.8824 4.66909 11.8125 4.76938 11.8125 4.88157V13.1184C11.8125 13.2306 11.8824 13.3309 11.9877 13.3697C12.4797 13.551 13.0203 13.551 13.5123 13.3697C13.6176 13.3309 13.6875 13.2306 13.6875 13.1184V4.88157Z" fill="#444152"/>
<path fill-rule="evenodd" clip-rule="evenodd" d="M6.40122 3.57467C6.94876 3.7764 7.3125 4.29805 7.3125 4.88157V13.1184C7.3125 13.702 6.94876 14.2236 6.40122 14.4254C5.65815 14.6991 4.84185 14.6991 4.09878 14.4254C3.55124 14.2236 3.1875 13.702 3.1875 13.1184V4.88157C3.1875 4.29805 3.55124 3.7764 4.09878 3.57467C4.84185 3.30091 5.65815 3.30091 6.40122 3.57467ZM6.1875 4.88157C6.1875 4.76938 6.11757 4.66909 6.0123 4.63031C5.52026 4.44904 4.97974 4.44904 4.4877 4.63031C4.38243 4.66909 4.3125 4.76938 4.3125 4.88157V13.1184C4.3125 13.2306 4.38243 13.3309 4.4877 13.3697C4.97974 13.551 5.52026 13.551 6.0123 13.3697C6.11757 13.3309 6.1875 13.2306 6.1875 13.1184V4.88157Z" fill="#444152"/>
</svg>
