<svg width="12" height="16" viewBox="0 0 12 16" fill="none" xmlns="http://www.w3.org/2000/svg">
<path fill-rule="evenodd" clip-rule="evenodd" d="M11.0629 6.87507L11.058 7.05717L11.0629 7.25007L11.0583 7.43247L11.0629 7.62507L11.0585 7.80875L11.0629 8.00007L10.9411 13.3273C10.9122 14.5913 9.95086 15.638 8.69393 15.7741C6.90338 15.968 5.09708 15.968 3.30651 15.7741C2.04958 15.638 1.08825 14.5913 1.05936 13.3273L0.937568 8.00007L0.94197 7.80747L0.937583 7.62507L0.942202 7.43322L0.937545 7.25007L0.942427 7.058L0.9375 6.87507L1.06051 2.3016C1.06223 2.23779 1.06671 2.17464 1.07385 2.11228L1.07665 2.08591L1.07887 2.06466C1.13932 1.44658 1.48183 0.907511 1.98097 0.584013C2.01822 0.559248 2.05633 0.535661 2.09527 0.513311C2.13335 0.490773 2.17222 0.469398 2.21184 0.449231C2.45679 0.319961 2.73016 0.236171 3.02116 0.209381C5.00303 0.0269509 6.99743 0.0269509 8.97923 0.209388C9.26978 0.236126 9.54278 0.319691 9.78743 0.448616C9.82703 0.468753 9.86588 0.490098 9.90398 0.512606C9.94418 0.535623 9.98348 0.559961 10.0218 0.585543C10.5183 0.908321 10.8593 1.44459 10.9211 2.05956L10.9269 2.11528C10.9339 2.17668 10.9382 2.23882 10.9399 2.3016L11.0629 6.87507ZM9.80588 2.24057L9.92363 7.39055L9.82823 10.9383C9.80678 11.7357 9.19246 12.3913 8.39798 12.4644C6.80281 12.6113 5.19758 12.6113 3.60242 12.4644C2.80797 12.3913 2.19364 11.7357 2.17219 10.9383L2.07679 7.391L2.19453 2.24057C2.19479 2.22948 2.19524 2.21845 2.19591 2.20747C2.24052 1.90576 2.41537 1.64533 2.66328 1.48718C2.7572 1.43822 2.8614 1.40575 2.97225 1.39375C4.98503 1.17578 7.01543 1.17578 9.02821 1.39375C9.13898 1.40575 9.24316 1.4382 9.33706 1.48712C9.58508 1.64531 9.75998 1.90587 9.80453 2.20772C9.80521 2.21862 9.80566 2.22957 9.80588 2.24057ZM6.00023 15.2751C6.62153 15.2751 7.12523 14.7714 7.12523 14.1501C7.12523 13.5287 6.62153 13.0251 6.00023 13.0251C5.37893 13.0251 4.87523 13.5287 4.87523 14.1501C4.87523 14.7714 5.37893 15.2751 6.00023 15.2751Z" fill="#444152"/>
</svg>
