<svg width="18" height="19" viewBox="0 0 18 19" fill="none" xmlns="http://www.w3.org/2000/svg">
<path d="M3.54543 5.16272C3.33021 5.10594 3.15133 4.9565 3.05716 4.75481C2.963 4.55312 2.96329 4.32003 3.05795 4.11858L4.7187 0.584188C4.84246 0.320798 5.10742 0.152778 5.39843 0.153138C5.68944 0.153498 5.95398 0.322178 6.07709 0.585868L6.80971 2.1551C6.83591 2.14481 6.86295 2.13588 6.89078 2.12842C11.2381 0.963558 15.7067 3.54346 16.8715 7.89079C18.0364 12.2382 15.4565 16.7067 11.1091 17.8716C6.7618 19.0364 2.29326 16.4565 1.12839 12.1092C0.75797 10.7267 0.766301 9.32989 1.09074 8.03109C1.19112 7.62929 1.59828 7.38489 2.00015 7.48529C2.40201 7.58559 2.6464 7.99279 2.54602 8.39469C2.28172 9.45269 2.27444 10.5907 2.57728 11.721C3.52774 15.2681 7.1738 17.3731 10.7209 16.4227C14.2681 15.4722 16.3731 11.8262 15.4226 8.27909C14.4877 4.78989 10.9447 2.69608 7.4531 3.53313L8.1923 5.11643C8.3154 5.38012 8.2748 5.69123 8.0882 5.91456C7.9017 6.13789 7.6027 6.23313 7.3214 6.1589L3.54543 5.16272Z" fill="white"/>
</svg>
