<svg width="15" height="20" viewBox="0 0 15 20" fill="none" xmlns="http://www.w3.org/2000/svg">
<path fill-rule="evenodd" clip-rule="evenodd" d="M11.4242 2.41833C8.83107 1.9836 6.16887 1.9836 3.57579 2.41833C3.08779 2.50014 2.7002 2.87507 2.60292 3.35801C1.71785 7.75199 1.66955 12.2735 2.46058 16.6854L2.62413 17.5976L6.29467 14.1106C6.97007 13.4689 8.02987 13.4689 8.70527 14.1106L12.3758 17.5976L12.5394 16.6854C13.3304 12.2735 13.2821 7.75199 12.397 3.35801C12.2998 2.87507 11.9122 2.50014 11.4242 2.41833ZM3.32778 0.93898C6.08507 0.47672 8.91487 0.47672 11.6722 0.93898C12.7714 1.12326 13.647 1.96707 13.8675 3.06181C14.7898 7.64072 14.8402 12.3525 14.0158 16.9501L13.7944 18.1854C13.6085 19.2223 12.3444 19.6367 11.5807 18.9112L7.67217 15.1981C7.57567 15.1064 7.42427 15.1064 7.32777 15.1981L3.41925 18.9112C2.65555 19.6367 1.39151 19.2223 1.20561 18.1854L0.984122 16.9501C0.159812 12.3525 0.210132 7.64073 1.13246 3.06181C1.35297 1.96707 2.22857 1.12326 3.32778 0.93898Z" fill="#9E9DA3"/>
</svg>
