<svg width="24" height="24" viewBox="0 0 24 24" fill="none" xmlns="http://www.w3.org/2000/svg">
<rect width="24" height="24" rx="4" fill="#A80B0B"/>
<path fill-rule="evenodd" clip-rule="evenodd" d="M14.764 6.36826C12.9376 6.04252 11.0624 6.04252 9.23602 6.36826C8.8923 6.42956 8.6193 6.7105 8.55079 7.07237C7.92739 10.3648 7.89337 13.7528 8.45053 17.0586L8.56572 17.7421L11.1511 15.1293C11.6268 14.6485 12.3732 14.6485 12.849 15.1293L15.4343 17.7421L15.5495 17.0586C16.1066 13.7528 16.0726 10.3648 15.4492 7.07237C15.3807 6.7105 15.1077 6.42956 14.764 6.36826ZM9.06134 5.25978C11.0034 4.91341 12.9966 4.91341 14.9387 5.25978C15.7129 5.39786 16.3296 6.03013 16.4849 6.85042C17.1345 10.2814 17.17 13.812 16.5894 17.257L16.4334 18.1826C16.3025 18.9595 15.4121 19.27 14.8742 18.7264L12.1213 15.9442C12.0533 15.8755 11.9467 15.8755 11.8787 15.9442L9.12576 18.7264C8.58786 19.27 7.69753 18.9595 7.5666 18.1826L7.41059 17.257C6.82999 13.812 6.86543 10.2814 7.51507 6.85042C7.67039 6.03013 8.28711 5.39786 9.06134 5.25978Z" fill="white"/>
</svg>
