<svg width="20" height="18" viewBox="0 0 20 18" fill="none" xmlns="http://www.w3.org/2000/svg">
<path fill-rule="evenodd" clip-rule="evenodd" d="M8.48635 1.11419C9.16075 -0.0480785 10.8392 -0.0480686 11.5136 1.11419L13.579 4.67355C13.7694 5.00164 14.0984 5.22553 14.4735 5.28218L17.9031 5.80018C19.3981 6.02598 19.9225 7.9136 18.7582 8.8781L16.2593 10.9485C15.9086 11.239 15.7437 11.6974 15.8289 12.1449L16.5289 15.8208C16.8031 17.2608 15.2914 18.3796 13.9944 17.6966L10.5824 15.9001C10.2178 15.7081 9.78215 15.7081 9.41755 15.9001L6.00554 17.6966C4.70853 18.3796 3.1969 17.2608 3.4711 15.8208L4.17108 12.1449C4.25628 11.6974 4.09136 11.239 3.74062 10.9485L1.24172 8.8781C0.0774317 7.9136 0.601842 6.02598 2.09683 5.80018L5.52648 5.28218C5.90154 5.22553 6.23059 5.00164 6.42096 4.67355L8.48635 1.11419ZM10.2162 1.86702C10.1199 1.70098 9.88005 1.70098 9.78375 1.86702L7.71836 5.42638C7.29954 6.14817 6.57563 6.64073 5.75049 6.76535L2.32085 7.2834C2.10728 7.3156 2.03236 7.5853 2.19869 7.7231L4.69759 9.7934C5.46922 10.4327 5.83205 11.4411 5.6446 12.4254L4.94462 16.1014C4.90545 16.3071 5.12139 16.467 5.30668 16.3694L8.71875 14.5728C9.52065 14.1505 10.4793 14.1505 11.2812 14.5728L14.6933 16.3694C14.8786 16.467 15.0945 16.3071 15.0553 16.1014L14.3554 12.4254C14.1679 11.4411 14.5307 10.4327 15.3024 9.7934L17.8013 7.7231C17.9676 7.5853 17.8927 7.3156 17.6791 7.2834L14.2495 6.76535C13.4243 6.64073 12.7004 6.14817 12.2816 5.42638L10.2162 1.86702Z" fill="#444152"/>
</svg>
