<svg width="15" height="20" viewBox="0 0 15 20" fill="none" xmlns="http://www.w3.org/2000/svg">
<path fill-rule="evenodd" clip-rule="evenodd" d="M6.05776 1.87626C5.81026 1.91232 5.56786 1.97728 5.33546 2.06979C3.95224 2.62051 3.13164 4.0525 3.3558 5.52435L3.38684 5.72816C3.42531 5.98069 3.49162 6.22819 3.58458 6.46612L4.49947 8.80782C6.68866 8.65902 8.88606 8.67192 11.0739 8.84652L12.57 8.96592C13.5381 9.04322 14.3286 9.77102 14.4855 10.7294C14.8472 12.9383 14.8472 15.1913 14.4855 17.4002C14.3286 18.3586 13.5381 19.0863 12.57 19.1636L11.0739 19.2831C8.71166 19.4716 6.33826 19.4716 3.97614 19.2831L2.48001 19.1636C1.51191 19.0863 0.72141 18.3586 0.56448 17.4002C0.20279 15.1913 0.20279 12.9383 0.56448 10.7294C0.72141 9.77102 1.51191 9.04322 2.48001 8.96592L2.93659 8.92952L2.18743 7.01198C2.05416 6.67087 1.95909 6.31605 1.90394 5.95401L1.8729 5.7502C1.54365 3.58836 2.74895 1.48508 4.78061 0.676187C5.12189 0.540297 5.47793 0.444897 5.84146 0.391937C8.00536 0.0766367 10.1008 1.29548 10.8966 3.33231L10.9716 3.52433C11.1049 3.86544 11.2 4.22026 11.2551 4.58231L11.3965 5.51032C11.438 5.78331 11.2504 6.03832 10.9774 6.0799L10.4831 6.15519C10.2102 6.19676 9.95506 6.00916 9.91356 5.73617L9.77216 4.80816C9.73376 4.55562 9.66736 4.30812 9.57446 4.07019L9.49946 3.87817C8.95766 2.49143 7.53096 1.6616 6.05776 1.87626ZM7.52496 12.5648C6.69656 12.5648 6.02496 13.2364 6.02496 14.0648C6.02496 14.8932 6.69656 15.5648 7.52496 15.5648C8.35336 15.5648 9.02496 14.8932 9.02496 14.0648C9.02496 13.2364 8.35336 12.5648 7.52496 12.5648Z" fill="white"/>
</svg>
