<svg width="24" height="24" viewBox="0 0 24 24" fill="none" xmlns="http://www.w3.org/2000/svg">
<rect width="24" height="24" rx="4" fill="#100E18"/>
<path d="M15.0158 5.25939C13.0227 4.91354 10.9773 4.91354 8.98425 5.25939C8.25613 5.38574 7.67627 5.96436 7.53028 6.71458C6.86146 10.1515 6.82497 13.6882 7.42272 17.1392L7.66608 18.5442C7.74112 18.9774 8.25137 19.1506 8.55964 18.8475L11.4972 15.9588C11.7789 15.6817 12.2211 15.6817 12.5029 15.9588L15.4404 18.8475C15.7486 19.1506 16.2589 18.9774 16.3339 18.5442L16.5773 17.1392C17.175 13.6883 17.1386 10.1515 16.4697 6.71458C16.3238 5.96436 15.7439 5.38574 15.0158 5.25939Z" fill="#A80B0B"/>
</svg>
