<svg width="264" height="100" viewBox="0 0 264 100" fill="none" xmlns="http://www.w3.org/2000/svg">
<g clip-path="url(#clip0_149_2174)">
<path d="M207.722 29.9561C207.722 34.0347 205.419 35.9214 201.988 35.9214C198.556 35.9214 196.337 34.0717 196.337 29.9561V16.4902H188.938V30.215C188.938 39.1584 196.42 42.6636 202.043 42.6636C207.666 42.6636 215.158 39.1584 215.158 30.215V16.4902H207.758L207.722 29.9561Z" fill="white"/>
<path d="M182.679 22.7422V16.4902H158.633V22.7422H172.866L158.059 35.9399V42.1919H183.576V35.9399H167.9L182.679 22.7422Z" fill="white"/>
<path d="M252.199 16C247.51 16 243.977 17.9052 242.229 20.8092C240.444 17.9052 236.569 16 232.546 16C224.638 16 220.523 21.0405 220.523 27.2647V42.1919H227.922V28.3191C227.922 25.341 229.485 22.7237 233.073 22.7237C233.804 22.6802 234.537 22.7928 235.222 23.0538C235.906 23.3149 236.528 23.7186 237.045 24.2381C237.561 24.7576 237.962 25.381 238.22 26.067C238.477 26.7531 238.586 27.486 238.539 28.2173V42.2011H245.938V28.2081C245.938 25.2208 247.695 22.7144 251.246 22.7144C254.798 22.7144 256.509 25.3318 256.509 28.3098V42.1826H263.908V27.2832C263.908 21.059 260.088 16.0185 252.134 16.0185L252.199 16Z" fill="white"/>
<path d="M145.784 29.9561C145.784 34.0347 143.481 35.9214 140.077 35.9214C136.674 35.9214 134.399 34.0717 134.399 29.9561V16.4902H127V30.215C127 39.1584 134.454 42.6636 140.105 42.6636C145.756 42.6636 153.192 39.1584 153.192 30.215V16.4902H145.793L145.784 29.9561Z" fill="white"/>
<path d="M190.142 74.3723V57.7249H182.817L182.863 61.785C181.273 59.3989 178.47 57.207 173.495 57.207C164.94 57.207 160.547 63.8752 160.547 70.5342C160.389 77.2856 165.356 84 173.134 84C177.268 84 181.004 82.1503 182.817 78.9596C183.239 80.3016 184.095 81.4656 185.25 82.269C186.405 83.0724 187.793 83.4698 189.199 83.3989H193.434V77.1746H192.26C190.799 77.1746 190.142 76.6289 190.142 74.4V74.3723ZM175.039 77.563C170.859 77.563 167.686 74.659 167.686 70.5804C167.686 66.5018 170.859 63.7087 175.039 63.7087C179.386 63.7087 182.521 66.5295 182.521 70.5804C182.521 74.6312 179.386 77.563 175.039 77.563Z" fill="white"/>
<path d="M142.177 83.9994C133.308 83.9994 127 79.819 127 69.6179V49.752H134.399V60.3971C136.517 58.3069 139.338 57.2804 143.398 57.2804C152.239 57.2804 157.159 63.3196 157.159 70.6167C157.159 79.3196 150.38 83.9994 142.223 83.9994H142.177ZM142.094 63.6526C137.886 63.6526 134.695 66.5566 134.695 70.6353C134.695 74.7139 137.867 77.5069 142.094 77.5069C146.32 77.5069 149.576 74.6583 149.576 70.6353C149.576 66.6121 146.44 63.6526 142.094 63.6526Z" fill="white"/>
<path d="M231.957 83.4352H239.355V70.8387L250.87 83.4352H259.61L247.679 70.2376L258.694 57.7336H250.01L239.355 69.7659V49.7891H231.957V83.4352Z" fill="white"/>
<path d="M198.772 57.7325H206.178V62.3416H206.583C207.022 61.4796 207.656 60.7056 208.483 60.0371C209.169 59.4741 210.101 58.9288 211.28 58.4362C212.458 57.9436 213.971 57.6797 215.836 57.6797C217.349 57.6797 218.756 57.8908 220.076 58.313C221.395 58.7353 222.539 59.4038 223.524 60.3009C224.509 61.1981 225.266 62.3592 225.811 63.7314C226.356 65.1036 226.638 66.7573 226.638 68.6748V83.3994H219.231V70.7683C219.231 68.5693 218.633 66.9332 217.437 65.8601C216.241 64.7869 214.657 64.2592 212.705 64.2592C210.541 64.2592 208.922 64.8749 207.814 66.0888C206.723 67.3026 206.16 68.8683 206.16 70.7683V83.3994H198.754V57.7325H198.772Z" fill="white"/>
<path d="M100.298 50.0263C100.298 77.6297 77.8489 100 50.149 100C22.4755 100 0 77.621 0 50.0263C0 22.379 22.4755 0 50.149 0C77.8489 0 100.298 22.379 100.298 50.0263ZM55.8994 17.3825C54.0235 17.2072 52.095 17.1371 50.1403 17.1371C48.2118 17.1371 46.2833 17.216 44.4074 17.3825V44.0568H55.8906V17.3825H55.8994ZM82.4509 32.933C78.4011 31.6094 74.1147 30.5049 69.6353 29.7072V52.1038C69.6353 68.2328 62.7805 76.7006 50.1403 76.7006C37.5526 76.7006 30.6715 68.2241 30.6715 52.1038V29.7072C26.1921 30.5049 21.9145 31.6094 17.8559 32.933V52.2353C17.8559 69.9597 32.3194 84.432 50.1403 84.432C67.9786 84.432 82.4421 69.9597 82.4421 52.2353V32.933H82.4509Z" fill="#7000FF"/>
</g>
<defs>
<clipPath id="clip0_149_2174">
<rect width="264" height="100" fill="white"/>
</clipPath>
</defs>
</svg>
